<?xml version="1.0" standalone="no"?><!-- Generator: Gravit.io --><svg xmlns="http://www.w3.org/2000/svg" xmlns:xlink="http://www.w3.org/1999/xlink" style="isolation:isolate" viewBox="0 0 32 32" width="32" height="32"><defs><clipPath id="_clipPath_FOx8hqXChWJW9roSjSvShAM4In4mWqTk"><rect width="32" height="32"/></clipPath></defs><g clip-path="url(#_clipPath_FOx8hqXChWJW9roSjSvShAM4In4mWqTk)"><path d="M 5 0 L 27 0 C 29.76 0 32 2.24 32 5 L 32 27 C 32 29.76 29.76 32 27 32 L 5 32 C 2.24 32 0 29.76 0 27 L 0 5 C 0 2.24 2.24 0 5 0 Z" style="stroke:none;fill:#1890FF;stroke-miterlimit:10;"/><path d=" M 16 4.375 C 9.58 4.375 4.375 9.58 4.375 16 C 4.375 22.42 9.58 27.625 16 27.625 C 22.42 27.625 27.625 22.42 27.625 16 C 27.625 9.58 22.42 4.375 16 4.375 Z  M 19.857 21.137 C 19.675 21.319 19.483 21.51 19.327 21.666 C 19.187 21.807 19.088 21.98 19.038 22.168 C 18.967 22.434 18.91 22.702 18.814 22.959 L 17.999 25.155 C 17.354 25.296 16.687 25.375 16 25.375 L 16 24.092 C 16.079 23.5 15.642 22.392 14.939 21.689 C 14.658 21.408 14.5 21.026 14.5 20.628 L 14.5 19.128 C 14.5 18.582 14.206 18.081 13.728 17.817 C 13.055 17.444 12.097 16.923 11.44 16.593 C 10.902 16.322 10.405 15.977 9.957 15.573 L 9.919 15.54 C 9.599 15.251 9.315 14.924 9.073 14.567 C 8.633 13.922 7.917 12.86 7.451 12.17 C 8.411 10.037 10.14 8.325 12.289 7.394 L 13.414 7.957 C 13.913 8.207 14.5 7.844 14.5 7.286 L 14.5 6.757 C 14.875 6.696 15.256 6.658 15.643 6.643 L 16.97 7.97 C 17.263 8.263 17.263 8.738 16.97 9.031 L 16.75 9.25 L 16.265 9.735 C 16.119 9.881 16.119 10.119 16.265 10.265 L 16.485 10.485 C 16.631 10.631 16.631 10.869 16.485 11.015 L 16.11 11.39 C 16.04 11.46 15.944 11.5 15.845 11.5 L 15.423 11.5 C 15.326 11.5 15.232 11.537 15.162 11.606 L 14.697 12.058 C 14.58 12.172 14.55 12.349 14.623 12.495 L 15.354 13.957 C 15.478 14.206 15.297 14.5 15.018 14.5 L 14.754 14.5 C 14.664 14.5 14.576 14.467 14.508 14.408 L 14.073 14.03 C 13.873 13.856 13.596 13.801 13.345 13.885 L 11.883 14.372 C 11.655 14.448 11.5 14.662 11.5 14.903 C 11.5 15.115 11.62 15.309 11.81 15.404 L 12.33 15.664 C 12.771 15.885 13.257 16 13.75 16 C 14.244 16 14.809 17.279 15.25 17.5 L 18.379 17.5 C 18.777 17.5 19.158 17.657 19.44 17.939 L 20.082 18.58 C 20.35 18.849 20.501 19.212 20.5 19.592 C 20.5 20.172 20.269 20.728 19.857 21.137 L 19.857 21.137 Z  M 23.922 16.855 C 23.65 16.787 23.414 16.621 23.259 16.388 L 22.416 15.124 C 22.164 14.746 22.164 14.254 22.416 13.876 L 23.334 12.499 C 23.443 12.336 23.592 12.204 23.767 12.117 L 24.376 11.813 C 25.009 13.075 25.375 14.494 25.375 16 C 25.375 16.406 25.34 16.804 25.29 17.197 L 23.922 16.855 Z " fill="rgb(255,255,255)"/></g></svg>