<?xml version="1.0" standalone="no"?><!-- Generator: Gravit.io --><svg xmlns="http://www.w3.org/2000/svg" xmlns:xlink="http://www.w3.org/1999/xlink" style="isolation:isolate" viewBox="0 0 32 32" width="32" height="32"><defs><clipPath id="_clipPath_iIOmuASBYNfWyW075rLXLQkgPD6iifRt"><rect width="32" height="32"/></clipPath></defs><g clip-path="url(#_clipPath_iIOmuASBYNfWyW075rLXLQkgPD6iifRt)"><path d=" M 5 0 L 27 0 C 29.76 0 32 2.24 32 5 L 32 27 C 32 29.76 29.76 32 27 32 L 5 32 C 2.24 32 0 29.76 0 27 L 0 5 C 0 2.24 2.24 0 5 0 Z  M 16.009 22.983 L 13.091 22.983 L 12.335 19.546 L 11.315 15.205 L 11.254 15.205 L 9.461 22.983 L 6.578 22.983 L 3.783 13.157 L 6.455 13.157 L 7.589 17.507 Q 7.861 18.676 8.143 20.733 L 8.195 20.733 Q 8.23 20.065 8.503 18.615 L 8.644 17.868 L 9.856 13.157 L 12.81 13.157 L 13.961 17.868 Q 13.996 18.061 14.071 18.439 Q 14.146 18.817 14.216 19.243 Q 14.286 19.669 14.343 20.078 Q 14.4 20.487 14.409 20.733 L 14.462 20.733 Q 14.541 20.1 14.743 18.997 Q 14.945 17.894 15.033 17.507 L 16.211 13.157 L 18.839 13.157 L 16.009 22.983 Z  M 28.217 19.415 Q 28.217 21.155 26.964 22.157 Q 25.712 23.159 23.479 23.159 Q 21.423 23.159 19.841 22.385 L 19.841 19.854 Q 21.142 20.434 22.042 20.671 Q 22.943 20.909 23.69 20.909 Q 24.587 20.909 25.066 20.566 Q 25.545 20.223 25.545 19.546 Q 25.545 19.168 25.334 18.874 Q 25.123 18.58 24.714 18.307 Q 24.306 18.035 23.049 17.437 Q 21.871 16.883 21.282 16.374 Q 20.693 15.864 20.342 15.187 Q 19.99 14.51 19.99 13.605 Q 19.99 11.9 21.146 10.924 Q 22.302 9.949 24.341 9.949 Q 25.343 9.949 26.252 10.186 Q 27.162 10.423 28.155 10.854 L 27.276 12.972 Q 26.248 12.55 25.576 12.383 Q 24.903 12.216 24.253 12.216 Q 23.479 12.216 23.066 12.577 Q 22.653 12.937 22.653 13.517 Q 22.653 13.877 22.82 14.146 Q 22.987 14.414 23.352 14.664 Q 23.717 14.915 25.079 15.565 Q 26.881 16.426 27.549 17.292 Q 28.217 18.158 28.217 19.415 Z " fill-rule="evenodd" fill="rgb(24,144,255)"/></g></svg>